<?xml version="1.0" encoding="UTF-8"?><svg id="Layer_2" xmlns="http://www.w3.org/2000/svg" viewBox="0 0 698.64 255.53"><defs><style>.cls-1{stroke-width:8.05px;}.cls-1,.cls-2{fill:#fff;}.cls-1,.cls-3,.cls-4{stroke:#000;stroke-miterlimit:10;}.cls-3{stroke-width:6.06px;}.cls-4{stroke-width:3.22px;}</style></defs><g id="LOGO"><g id="BW__x28_OG_x29_"><path class="cls-4" d="M327.41,127.58c-2.19,2.87-5.07,5-8.63,6.39-3.56,1.39-7.28,2.08-11.15,2.08-8.13,0-12.2-1.61-12.2-4.83,0-.76.27-1.44.81-2.04.54-.6,1.19-.9,1.95-.9s1.73.16,2.91.47c1.18.32,2.53.47,4.05.47,8.26,0,13.95-2.46,17.06-7.39,1.65-2.52,2.87-5.22,3.67-8.09.79-2.87,1.44-6.49,1.95-10.84l6.39-55.48h-24.12c-1.72,0-2.57-.98-2.57-2.94,0-.95.25-1.72.76-2.32.51-.6,1.14-.9,1.91-.9h28.69c2.03,0,3.05.82,3.05,2.46v.47l-6.96,60.6c-.57,5.11-1.43,9.47-2.57,13.07-1.14,3.6-2.81,6.83-5,9.71Z"/><path class="cls-4" d="M408.96,49.47c1.97,2.94,3.42,6.23,4.34,9.89.92,3.66,1.38,7.56,1.38,11.69s-.27,8.13-.81,11.98c-.54,3.85-1.38,7.76-2.53,11.74-1.14,3.98-2.67,7.7-4.57,11.17-1.91,3.47-4.13,6.57-6.67,9.28-2.54,2.72-5.62,4.86-9.25,6.44s-7.69,2.37-12.2,2.37-8.5-.82-11.96-2.46c-3.46-1.64-6.21-3.94-8.25-6.91-3.81-5.68-5.72-13.13-5.72-22.34,0-9.78,1.65-18.97,4.96-27.55,1.84-4.67,4.08-8.8,6.72-12.4,2.64-3.6,6.02-6.53,10.15-8.8,4.13-2.27,8.66-3.41,13.58-3.41s9.13.82,12.63,2.46c3.49,1.64,6.23,3.93,8.2,6.86ZM380.18,117.97c3.75,0,7.24-1.14,10.49-3.41,3.24-2.27,5.86-5.11,7.86-8.52,2-3.41,3.67-7.29,5-11.65,2.35-7.7,3.53-15.5,3.53-23.39,0-6.75-1.4-12.5-4.19-17.23-1.4-2.46-3.4-4.39-6.01-5.78-2.61-1.39-5.78-2.08-9.53-2.08s-7.24,1.14-10.49,3.41c-3.24,2.27-5.86,5.11-7.86,8.52-2,3.41-3.67,7.29-5,11.65-2.35,7.7-3.53,15.5-3.53,23.39,0,6.76,1.37,12.5,4.1,17.23,3.05,5.24,8.26,7.86,15.63,7.86Z"/><path class="cls-4" d="M429.02,124.03c-2.35,0-3.53-.79-3.53-2.37v-.38l9.63-77.54c.19-1.26,1.05-1.99,2.57-2.18,4.7-.95,10.9-1.42,18.59-1.42s13.76,1.55,18.21,4.64c4.45,3.09,6.67,7.67,6.67,13.73,0,5.11-1.81,9.56-5.43,13.35-3.62,3.79-8.58,6.28-14.87,7.48,4.19,1.77,7.44,5.18,9.72,10.23,1.08,2.53,2.11,5.32,3.1,8.38.98,3.06,1.6,4.94,1.86,5.63l5.91,17.14c.06.19.1.55.1,1.09s-.37,1.04-1.1,1.51c-.73.47-1.64.71-2.72.71-1.97,0-3.18-.7-3.62-2.08l-6.67-19.5c-1.72-5.05-3.26-9.01-4.62-11.88-1.37-2.87-2.99-4.91-4.86-6.11-1.87-1.2-5.07-1.8-9.58-1.8h-10.87l-4.77,38.82c-.13.95-.48,1.61-1.05,1.99-.57.38-1.46.57-2.67.57ZM449.51,76.41c5.08,0,10.17-1.33,15.25-3.98,2.54-1.33,4.62-3.19,6.24-5.59,1.62-2.4,2.43-5.11,2.43-8.14,0-3.98-1.67-7.1-5-9.37-3.34-2.27-7.52-3.41-12.53-3.41s-9.66.38-13.92,1.14l-3.62,29.35h11.15Z"/><path class="cls-4" d="M557.94,71.96c0,14.64-3.05,26.79-9.15,36.45-3.11,4.92-7.39,8.76-12.82,11.5-5.43,2.75-12.09,4.12-19.97,4.12s-14.11-.32-18.68-.95c-2.42-.32-3.62-1.2-3.62-2.65,0-.88.06-1.77.19-2.65l8.96-74.33c.06-.63.38-1.15.95-1.56.57-.41,1.17-.65,1.81-.71,7.24-.69,14.11-1.04,20.59-1.04,10.55,0,18.48,2.76,23.78,8.28,5.31,5.52,7.96,13.37,7.96,23.53ZM550.32,70.91c0-7.45-2.16-13.44-6.48-17.99-4.32-4.54-10.15-6.82-17.49-6.82s-12.82.32-16.44.95l-8.39,69.78c4.07.57,9.12.85,15.16.85s11.3-1.34,15.78-4.02c4.48-2.68,7.96-6.3,10.44-10.84,4.96-9.03,7.44-19.66,7.44-31.91Z"/><path class="cls-4" d="M596.23,42.89c.83-1.83,2.62-2.75,5.39-2.75s4.34.92,4.72,2.75c10.99,52.45,16.49,78.71,16.49,78.78,0,1.58-1.21,2.37-3.62,2.37s-3.81-.92-4.19-2.75l-4.19-19.88h-34.03l-6.29,13.73c-.38,1.01-.78,1.93-1.19,2.75-.41.82-.75,1.5-1,2.04-.25.54-.46.95-.62,1.23-.16.28-.35.62-.57.99-.22.38-.43.66-.62.85s-.38.38-.57.57c-.32.32-.89.47-1.72.47s-1.7-.25-2.62-.76c-.92-.51-1.38-1.26-1.38-2.27s1.56-4.83,4.67-11.46l31.36-66.66ZM600.52,50.84l-20.97,44.78h30.03l-9.06-44.78Z"/><path class="cls-4" d="M641.83,123.08c-.51.63-1.45.95-2.81.95s-2.3-.17-2.81-.52c-.51-.35-.76-.87-.76-1.56s.06-1.67.19-2.94l9.15-75.93c.25-1.96,1.65-2.94,4.19-2.94h2.1c2.03,0,3.34.79,3.91,2.37l26.79,67.03,7.72-64.38c.19-1.83.43-3.04.72-3.65.29-.6.68-.98,1.19-1.14.51-.16,1.32-.24,2.43-.24s1.92.19,2.43.57c.51.38.76.9.76,1.56s-.06,1.63-.19,2.89l-9.34,75.93c-.19,1.96-1.43,2.94-3.72,2.94h-1.81c-2.1,0-3.5-.85-4.19-2.56l-26.98-67.6-7.82,65.14c-.25,2.08-.64,3.44-1.14,4.07Z"/><path class="cls-4" d="M316.56,156.7l-.06-.47c0-.98.74-1.46,2.24-1.46.79,0,1.37.12,1.77.35.39.23.65.68.77,1.35l6.66,43.55,16.62-39.74c.12-.31.32-.82.62-1.52.29-.7.52-1.25.68-1.64.16-.39.35-.8.59-1.23.47-.74,1-1.11,1.59-1.11s1.17.16,1.74.47c.57.31.85.79.85,1.43s-.86,2.98-2.59,6.99l-17.44,41.26c-.47,1.13-1.57,1.7-3.3,1.7s-2.71-.57-2.95-1.7l-7.78-48.23Z"/><path class="cls-4" d="M367.32,156.46c.51-1.13,1.62-1.7,3.33-1.7s2.68.57,2.92,1.7c6.8,32.43,10.19,48.66,10.19,48.7,0,.98-.75,1.46-2.24,1.46s-2.36-.57-2.59-1.7l-2.59-12.29h-21.04l-3.89,8.49c-.24.63-.48,1.19-.74,1.7-.26.51-.46.93-.62,1.26-.16.33-.29.59-.38.76-.1.18-.22.38-.35.61-.14.23-.27.41-.38.53-.12.12-.24.23-.35.35-.2.19-.55.29-1.06.29s-1.05-.16-1.62-.47c-.57-.31-.85-.78-.85-1.4s.96-2.99,2.89-7.08l19.39-41.21ZM369.97,161.38l-12.96,27.69h18.56l-5.6-27.69Z"/><path class="cls-4" d="M395.11,206.04c-.31.39-.89.59-1.74.59s-1.42-.11-1.74-.32c-.31-.22-.47-.54-.47-.97s.04-1.03.12-1.81l5.66-46.94c.16-1.21,1.02-1.81,2.59-1.81h1.3c1.26,0,2.06.49,2.42,1.46l16.56,41.44,4.77-39.8c.12-1.13.27-1.88.44-2.25.18-.37.42-.61.74-.7.31-.1.81-.15,1.5-.15s1.19.12,1.5.35c.31.23.47.56.47.97s-.04,1-.12,1.78l-5.77,46.94c-.12,1.21-.88,1.81-2.3,1.81h-1.12c-1.3,0-2.16-.53-2.59-1.58l-16.68-41.79-4.83,40.27c-.16,1.29-.39,2.13-.71,2.52Z"/><path class="cls-4" d="M482.85,178.29c6.48,2.77,9.72,7.14,9.72,13.11,0,3.16-.96,5.93-2.89,8.31-3.69,4.6-9.66,6.91-17.91,6.91-4.28,0-7.9-.16-10.84-.47l-1.3-.18c-1.49-.12-2.24-.7-2.24-1.76v-.29l5.72-47.12c.2-1.37,4.65-2.05,13.38-2.05,4.4,0,8.08.95,11.05,2.84,2.97,1.89,4.47,4.63,4.51,8.22,0,2.81-.81,5.29-2.42,7.43-1.61,2.15-3.87,3.82-6.78,5.03ZM473.89,180.05h-8.96l-2.65,22.12c2.75.27,5.7.41,8.84.41s5.91-.42,8.31-1.26c2.39-.84,4.4-2.16,6.01-3.95,1.61-1.79,2.42-3.88,2.42-6.26,0-2.96-1.38-5.55-4.12-7.76-2.75-2.2-6.03-3.31-9.84-3.31ZM484.23,172.94c2.1-1.85,3.15-4.1,3.15-6.73s-1.06-4.6-3.18-5.91c-2.12-1.31-4.77-1.96-7.95-1.96s-6.11.23-8.78.7l-2.06,17.32h10.84c3.22-.43,5.88-1.57,7.98-3.42Z"/><path class="cls-4" d="M506.97,155.47h22.75c1.22,0,1.83.53,1.83,1.58,0,.78-.16,1.33-.47,1.64-.31.31-.88.47-1.71.47h-19.8l-1.94,18.32h16.32c1.38,0,2.06.51,2.06,1.52,0,.78-.17,1.34-.5,1.67-.33.33-.91.5-1.74.5h-16.68l-2.59,20.9h21.04c1.02,0,1.53.59,1.53,1.76,0,.59-.16,1.06-.47,1.43-.31.37-.71.56-1.18.56h-23.81c-1.3,0-1.94-.51-1.94-1.52,0-.23.02-.53.06-.88l5.6-45.95c.12-1.33.67-1.99,1.65-1.99Z"/><path class="cls-4" d="M536.93,206.62c-1.45,0-2.18-.49-2.18-1.46v-.23l5.95-47.94c.12-.78.65-1.23,1.59-1.35,2.91-.59,6.74-.88,11.49-.88s8.5.96,11.26,2.87c2.75,1.91,4.12,4.74,4.12,8.49,0,3.16-1.12,5.91-3.36,8.25-2.24,2.34-5.3,3.88-9.19,4.62,2.59,1.09,4.6,3.2,6.01,6.32.67,1.56,1.3,3.29,1.91,5.18.61,1.89.99,3.05,1.15,3.48l3.65,10.59c.04.12.06.34.06.67s-.23.64-.68.94c-.45.29-1.01.44-1.68.44-1.22,0-1.97-.43-2.24-1.29l-4.12-12.06c-1.06-3.12-2.01-5.57-2.86-7.35-.84-1.78-1.85-3.03-3-3.78-1.16-.74-3.13-1.11-5.92-1.11h-6.72l-2.95,24c-.08.59-.29,1-.65,1.23-.35.23-.9.35-1.65.35ZM549.6,177.18c3.14,0,6.29-.82,9.43-2.46,1.57-.82,2.86-1.97,3.86-3.45,1-1.48,1.5-3.16,1.5-5.03,0-2.46-1.03-4.39-3.09-5.79-2.06-1.4-4.65-2.11-7.75-2.11s-5.97.23-8.6.7l-2.24,18.14h6.89Z"/><path class="cls-4" d="M583.07,161.58c1.73-2.05,3.88-3.7,6.45-4.95,2.57-1.25,5.22-1.87,7.95-1.87s5.13.4,7.19,1.2c2.06.8,3.58,1.64,4.57,2.52.98.88,1.47,1.57,1.47,2.08s-.29,1.03-.88,1.58-1.18.82-1.77.82c-.12,0-.41-.24-.89-.73-.47-.49-1.04-1.01-1.71-1.58-.67-.56-1.68-1.09-3.03-1.58-1.36-.49-2.86-.73-4.51-.73-2.99,0-5.67.92-8.04,2.75-2.38,1.83-4.25,4.21-5.63,7.14-2.75,5.97-4.12,12.16-4.12,18.55s1.89,10.61,5.66,13.58c1.96,1.56,4.42,2.34,7.37,2.34s5.69-.97,8.22-2.9,4-4.32,4.39-7.17l1.24-9.6h-14.85c-1.02,0-1.53-.6-1.53-1.81,0-.55.16-1,.47-1.35.31-.35.71-.53,1.18-.53h17.85c1.22,0,1.83.53,1.83,1.58,0,.31-.98,8.33-2.94,24.06-.08.66-.29,1.1-.65,1.32-.35.21-.91.32-1.65.32-1.69,0-2.53-.49-2.53-1.46,0-.16.18-1.31.53-3.45-3.18,3.28-7.31,4.92-12.37,4.92-5.77,0-10.04-1.83-12.79-5.5-2.75-3.67-4.12-8.55-4.12-14.63,0-6.59,1.1-12.49,3.3-17.68,1.18-2.77,2.63-5.18,4.36-7.23Z"/><path class="cls-4" d="M626.17,155.47h22.75c1.22,0,1.83.53,1.83,1.58,0,.78-.16,1.33-.47,1.64-.31.31-.89.47-1.71.47h-19.8l-1.94,18.32h16.32c1.37,0,2.06.51,2.06,1.52,0,.78-.17,1.34-.5,1.67-.34.33-.91.5-1.74.5h-16.68l-2.59,20.9h21.04c1.02,0,1.53.59,1.53,1.76,0,.59-.16,1.06-.47,1.43-.31.37-.71.56-1.18.56h-23.81c-1.3,0-1.94-.51-1.94-1.52,0-.23.02-.53.06-.88l5.6-45.95c.12-1.33.67-1.99,1.65-1.99Z"/><path class="cls-4" d="M657.9,206.04c-.31.39-.89.59-1.74.59s-1.43-.11-1.74-.32c-.31-.22-.47-.54-.47-.97s.04-1.03.12-1.81l5.66-46.94c.16-1.21,1.02-1.81,2.59-1.81h1.3c1.26,0,2.06.49,2.42,1.46l16.56,41.44,4.77-39.8c.12-1.13.27-1.88.44-2.25.18-.37.42-.61.74-.7.31-.1.82-.15,1.5-.15s1.19.12,1.5.35c.31.23.47.56.47.97s-.04,1-.12,1.78l-5.77,46.94c-.12,1.21-.88,1.81-2.3,1.81h-1.12c-1.29,0-2.16-.53-2.59-1.58l-16.68-41.79-4.83,40.27c-.16,1.29-.39,2.13-.71,2.52Z"/><path class="cls-3" d="M247.9,111.68c0-.79,0-1.58-.02-2.36,0-.88-.01-1.76-.02-2.64,0-1.32-.02-2.64-.03-3.96,0-.36,0-.71,0-1.07,0-1.38-.02-2.76-.03-4.14,0-.67-.01-1.33-.02-2-.02-2.07-.03-4.13-.05-6.2-.04-4.63-.08-9.26-.13-13.88-.05-4.66-.1-9.33-.17-13.99-.03-1.9-.06-3.81-.08-5.71,0-.48-.01-.96-.02-1.45-.03-2.25-.07-4.49-.1-6.74-.02-1.45-.05-2.91-.08-4.36-.05-3.04-.11-6.07-.17-9.11,0-.33,0-.66-.01-1-.02-1.48-.04-2.95-.06-4.43-.02-1.17-.03-2.35-.05-3.52,0-.6-.02-1.2-.02-1.8-.04-2.95-.07-5.9-.1-8.85,0,0,0,0,0,0,0-.8-.02-1.6-.03-2.41.01-1.07.03-2.15-.05-3.21,0-.07,0-.14,0-.22,0-.13,0-.26,0-.4-.01-.29-.07-.58-.16-.85-.01-.08-.03-.17-.04-.25,0,0,0,0,0,0-.13-.47-.34-.98-.61-1.45-.58-1.06-1.32-1.74-2.17-2.14-.02-.01-.04-.03-.06-.04-.77-.45-1.82-.53-2.69-.44-.72.08-1.4.23-2.09.42-.48.13-.95.31-1.42.49-1.6.62-3.19,1.49-4.56,2.28-.29.17-.58.34-.86.51-2.04,1.22-3.99,2.58-5.92,3.95-.02.02-.05.03-.07.05-3.62,2.55-7.13,5.25-10.57,8.03-2.92,2.34-5.78,4.74-8.61,7.19-3.63,2.68-7.25,5.38-10.85,8.1-.01,0-.02.02-.04.03-.1.07-.19.14-.29.22-1.68,1.27-3.36,2.54-5.04,3.82-.18.14-.36.27-.54.41-1.35,1.02-2.69,2.05-4.03,3.08-.27.21-.54.41-.81.62-.03.02-.06.04-.08.06,0,0,0,0,0,0-.06.05-.12.09-.19.14,0,0,0,0,0,0,0,0,0,0,0,0,0,0-.02.01-.03.02-.1.08-.2.15-.3.23-.57.44-1.13.87-1.7,1.31-.25.09-.48.27-.68.44-.68.61-1.38,1.21-2.08,1.81-5.04-1.33-10.16-2.38-15.42-2.33-.5-.02-.99-.03-1.49-.03-.25-.02-.5-.04-.75-.06-1.75-.12-3.49-.19-5.24-.24-1.71-.05-3.42-.04-5.13-.01-1.72.03-3.45.09-5.17.21-1.25.09-2.51.2-3.76.35-3.8.28-7.53,1.05-11.22,2.01-.19-.13-.39-.26-.58-.4,0,0,0,0,0,0-.06-.04-.12-.08-.18-.13-.2-.14-.46-.32-.72-.49-.08-.06-.36-.25-.64-.44-.07-.05-.28-.19-.48-.33l-.2-.14s-.21-.15-.42-.29c-.02-.01-.06-.04-.1-.07l-.03-.02s-.03-.02-.05-.03c-.16-.13-.35-.24-.52-.36-.56-.39-1.16-.8-1.78-1.22-3.18-2.4-6.37-4.8-9.57-7.17-.02-.02-.04-.03-.06-.05-.28-.21-.56-.42-.84-.63-3.43-2.55-6.87-5.08-10.32-7.59-2.87-2.46-5.79-4.87-8.76-7.21-3.42-2.73-6.91-5.37-10.51-7.86-.03-.02-.07-.05-.1-.07-1.94-1.37-3.9-2.71-5.95-3.91-1.08-.64-2.19-1.25-3.32-1.8-.03-.01-.06-.03-.09-.04-1.95-.99-4.11-1.87-6.05-1.83-.75,0-1.56.12-2.18.49-.33.2-.64.43-.91.69-.5.36-.92.86-1.25,1.4-.25.4-.44.83-.58,1.27-.02.06-.04.13-.06.19,0,.03-.02.06-.03.1,0,0,0,0,0,.01,0,0,0,0,0,0-.04.15-.07.31-.1.46-.05.21-.09.42-.09.64,0,.13,0,.26,0,.4,0,.03,0,.06,0,.09,0,.75,0,1.51-.01,2.26,0,.11,0,.23,0,.34-.01,1.05-.02,2.09-.02,3.14,0,2.2-.02,4.4-.02,6.6-.02,4.34-.05,8.67-.08,13.01-.03,4.49-.11,8.98-.15,13.47-.04,4.63-.07,9.26-.11,13.89-.07,9.29-.07,18.58-.1,27.87-.01,4.47-.01,8.95-.01,13.42,0,2.2,0,4.4,0,6.6,0,1.07,0,2.15,0,3.22,0,.42,0,.83,0,1.25,0,.12.01.23.02.34,0,.37.01.73.03,1.1.06,1.04.11,2.08.21,3.12.26,2.69.73,5.36,1.24,8.01.27,1.4.59,2.81,1.05,4.16.22.65.46,1.29.74,1.92,1.64,5.31,3.93,10.44,6.78,15.24.62,1.04,1.26,2.06,1.93,3.06,0,0,0,0,0,0,4.17,6.31,9.32,11.77,15.14,16.38,1.39,1.11,2.81,2.17,4.28,3.17h0s.01,0,.02.01c1.24.85,2.5,1.66,3.78,2.44,1.53.93,3.1,1.82,4.69,2.65,1.51.8,3.05,1.56,4.62,2.26.31.14.62.27.92.4.05.02.09.04.14.06.11.05.23.1.34.14,1.82.79,3.67,1.52,5.54,2.18,0,0,.01,0,.02,0,.03.01.06.02.09.03.75.27,1.51.53,2.27.79,2.1.7,4.22,1.31,6.36,1.85.17.04.35.09.52.13.04.01.09.02.13.03,6.27,1.57,12.69,2.55,19.06,2.93.59.04,1.19.07,1.79.1.05,0,.11,0,.16,0,.6.03,1.2.05,1.79.07.03,0,.05,0,.08,0,4.1.13,8.21.02,12.29-.31.09,0,.17-.01.26-.02.34-.03.67-.06,1.01-.09.15-.01.31-.03.46-.04.06,0,.13-.01.19-.02.44-.01.88-.02,1.33-.04,1.43-.05,2.85-.12,4.27-.22.8-.06,1.6-.13,2.4-.2.05,0,.09,0,.14-.01.59-.06,1.18-.12,1.76-.18.96-.06,1.93-.19,2.89-.36.12-.02.24-.04.37-.05,3.69-.52,7.35-1.23,10.96-2.13,2.53-.63,5.03-1.35,7.5-2.19,4.78-1.54,9.43-3.53,13.85-5.91.01,0,.02-.01.03-.02.3-.16.59-.32.89-.48,1.49-.83,2.96-1.7,4.39-2.61,4.84-3.03,9.34-6.63,13.37-10.65,3.31-3.3,6.27-6.91,8.85-10.79,2.44-3.6,4.54-7.44,6.24-11.47.1-.23.19-.46.29-.69,0-.01.01-.03.02-.04.94-2.26,1.76-4.59,2.46-6.98,0,0,0,0,0,0,.2-.48.37-.97.53-1.47.34-1.04.61-2.11.83-3.19.62-2.6,1.02-5.27,1.26-7.94.04-.35.07-.7.11-1.05.09-1.04.14-2.08.19-3.12.02-.37.03-.73.03-1.1.01-.11.02-.22.02-.34,0-.42,0-.83,0-1.25,0-.29,0-.57,0-.86Z"/><path class="cls-2" d="M225.06,124.1c-.04-3.39-.93-6.74-2.26-9.83-1.36-3.16-3.47-5.96-5.93-8.34-2.38-2.31-5.33-4.17-8.43-5.36-1.59-.61-3.21-1.09-4.88-1.4-1.7-.31-3.38-.42-5.09-.44-4.5,0-8.98,1.3-12.88,3.52-3.83,2.18-7,5.27-9.38,8.95-1.48,2.29-2.56,4.86-3.19,7.53-1.2,3.73-1.37,9.55-.52,13.13,0,.52.12,1.04.31,1.52.04.14.08.28.12.42.52,1.84,1.36,3.52,2.34,5.16,1.63,2.75,3.89,5.23,6.45,7.16,4.68,3.53,10.52,5.62,16.42,5.62.95,0,1.89-.05,2.84-.16,3.39-.4,6.77-1.3,9.76-2.96,2.76-1.53,5.32-3.42,7.41-5.79,2.26-2.56,4.08-5.45,5.26-8.65.58-1.56,1.04-3.18,1.3-4.83.28-1.76.39-3.49.37-5.27Z"/><path d="M204.99,122.13c-.21-3.11-.73-6.3-1.99-9.06-.98-2.16-2.6-4.11-4.72-4.37-1.54-.19-3.06.48-4.23,1.69-.99,1.03-1.66,2.32-2.19,3.75-.92,2.5-1.36,5.2-1.55,7.92-.1,1.47-.05,2.93.04,4.41.06,1.1.14,2.21.3,3.29.2,1.28.45,2.51.8,3.74.14.5.3.99.49,1.47.28.71.53,1.45.88,2.12.71,1.36,1.61,2.45,2.85,3.08.59.3,1.19.44,1.79.44.79,0,1.57-.25,2.32-.7.19-.11.37-.25.54-.39,1.3-.56,2.18-2.06,2.77-3.77.23-.37.42-.77.6-1.22.48-1.23.76-2.55.96-3.87.43-2.79.52-5.7.33-8.52Z"/><path class="cls-2" d="M141.94,124.7c-.04-3.39-.93-6.74-2.26-9.83-1.36-3.16-3.47-5.96-5.93-8.34-2.38-2.31-5.33-4.17-8.43-5.36-1.59-.61-3.21-1.09-4.88-1.4-1.7-.31-3.38-.42-5.09-.44-4.5,0-8.98,1.3-12.88,3.52-3.83,2.18-7,5.27-9.38,8.95-1.48,2.29-2.56,4.86-3.19,7.53-1.2,3.73-1.37,9.55-.52,13.13,0,.52.12,1.04.31,1.52.04.14.08.28.12.42.52,1.84,1.36,3.52,2.34,5.16,1.63,2.75,3.89,5.23,6.45,7.16,4.68,3.53,10.52,5.62,16.42,5.62.95,0,1.89-.05,2.84-.16,3.39-.4,6.77-1.3,9.76-2.96,2.76-1.53,5.32-3.42,7.41-5.79,2.26-2.56,4.08-5.45,5.26-8.65.58-1.56,1.04-3.18,1.3-4.83.28-1.76.39-3.49.37-5.27Z"/><path d="M121.87,122.73c-.21-3.11-.73-6.3-1.99-9.06-.98-2.16-2.6-4.11-4.72-4.37-1.54-.19-3.06.48-4.23,1.69-.99,1.03-1.66,2.32-2.19,3.75-.92,2.5-1.36,5.2-1.55,7.92-.1,1.47-.05,2.93.04,4.41.06,1.1.14,2.21.3,3.29.2,1.28.45,2.51.8,3.74.14.5.3.99.49,1.47.28.71.53,1.45.88,2.12.71,1.36,1.61,2.45,2.85,3.08.59.3,1.19.44,1.79.44.79,0,1.57-.25,2.32-.7.19-.11.37-.25.54-.39,1.3-.56,2.18-2.06,2.77-3.77.23-.37.42-.77.6-1.22.48-1.23.76-2.55.96-3.87.43-2.79.52-5.7.33-8.52Z"/><path class="cls-1" d="M156.17,201.41c-.29-.53-.78-.75-.87-.79-.4-.17-.77-.15-2.64.38-.52.15-.99.28-1.92.56-.77.23-1.16.35-1.55.46-1.96.6-5.48,1.68-6.08,1.86-3.51,1.07-6.71,1.53-8.46,1.79-.99.14-4.62.68-9.33.69-1.57,0-3.13-.12-4.69-.12s-4.35-.47-5.24-.6c-.57-.1-1.1-.27-1.92-.46-.94-.22-5.24-1.43-8.26-2.64-3.05-1.21-5.81-3.04-8.58-4.79-1.78-1.2-3.53-2.44-5.22-3.76-.79-.7-1.58-1.4-2.38-2.1-.12-.11-.23-.22-.36-.32-2.21-1.96-4.39-3.95-6.45-6.06-7.04-8.09-14.28-16.07-23.16-22.07-.62-.42-2.62-1.73-3.41-2.16-.28-.15-.56-.3-.56-.3s-.56-.28-1.11-.56c-.83-.42-1.67-.83-2.55-1.11-1.5-.58-3.04-1.06-4.61-1.42-6.08-1.4-12.65-.97-18.51,1.37-5.76,2.29-10.98,6.02-15.07,11.17-4.39,5.52-7.33,12.24-8.59,19.51-.08.45-.15.89-.21,1.34,0,0,0,0,0,0-.75,5.15-.52,10.39.56,15.45.34,1.62.76,3.21,1.26,4.78.95,2.98,2.28,5.82,3.84,8.45,2.16,3.63,4.23,6.11,4.94,6.93,1.9,2.17,3.56,3.62,4.82,4.72,2.33,2.02,4.21,3.33,6.39,4.84,1.29.89,3.15,2.18,5.75,3.69,1.75,1.02,3.29,1.82,4.49,2.41,1.03.47,2.39,1.08,3.99,1.75,0,0,2.72,1.14,5.14,2.04,13.96,5.16,31.42,5.16,31.42,5.16,1.29,0,2.57-.02,3.86-.07,4.45-.17,12.06-.49,21.21-2.94,3.19-.85,8.68-2.36,15.25-5.8,5.04-2.63,8.71-5.43,11.1-7.24,4.1-3.12,6.77-5.62,7.79-6.61,1.43-1.39,2.45-2.49,3.17-3.26,6.67-7.21,10.86-13.86,12.7-16.23.48-.62.77-1.03,1.2-1.67.52-.78,1.08-1.7,1.45-2.2.05-.07.16-.22.3-.43.07-.12.14-.23.28-.47.11-.18.12-.21.18-.32.08-.13.19-.32.33-.55.53-.74.65-1.62.29-2.29Z"/></g></g></svg>