<?xml version="1.0" encoding="UTF-8"?><svg id="Layer_2" xmlns="http://www.w3.org/2000/svg" viewBox="0 0 495.4 500.3"><defs><style>.cls-1{stroke-width:13.72px;}.cls-1,.cls-2{fill:#fff;}.cls-1,.cls-3{stroke:#000;stroke-miterlimit:10;}.cls-3{stroke-width:11.93px;}</style></defs><g id="LOGO"><g id="BW__x28_OG_x29_"><path class="cls-1" d="M307.92,395.17c-.57-1.05-1.55-1.48-1.71-1.55-.79-.33-1.53-.29-5.23.74-1.03.29-1.95.56-3.79,1.1-1.53.45-2.29.68-3.06.91-3.88,1.17-10.85,3.3-12.02,3.66-6.95,2.1-13.29,3.01-16.74,3.5-1.95.28-9.15,1.33-18.47,1.35-3.1,0-6.19-.24-9.28-.24s-8.6-.91-10.36-1.17c-1.12-.21-2.19-.53-3.8-.9-1.86-.43-10.37-2.81-16.35-5.17-6.03-2.38-11.49-5.97-16.98-9.4-3.52-2.36-6.99-4.78-10.32-7.38-1.56-1.37-3.13-2.74-4.7-4.11-.23-.22-.46-.43-.71-.62-4.37-3.84-8.7-7.74-12.76-11.9-13.93-15.87-28.26-31.53-45.83-43.29-1.22-.82-5.18-3.4-6.75-4.24-.55-.3-1.11-.59-1.11-.59s-1.11-.55-2.19-1.09c-1.64-.82-3.31-1.62-5.04-2.17-2.98-1.14-6.02-2.07-9.13-2.78-12.04-2.75-25.03-1.9-36.63,2.68-11.4,4.49-21.72,11.82-29.81,21.92-8.68,10.82-14.51,24.02-16.99,38.28-.15.87-.29,1.75-.41,2.62,0,0,0,0,0,0-1.48,10.11-1.04,20.39,1.11,30.3.67,3.17,1.5,6.31,2.49,9.38,1.89,5.85,4.5,11.42,7.6,16.58,4.27,7.11,8.37,11.99,9.78,13.6,3.76,4.26,7.04,7.11,9.53,9.25,4.61,3.97,8.34,6.53,12.65,9.49,2.55,1.75,6.24,4.28,11.38,7.23,3.47,2,6.51,3.57,8.89,4.73,2.04.93,4.72,2.12,7.9,3.44,0,0,5.38,2.24,10.18,4,27.62,10.13,62.18,10.12,62.18,10.12,2.55,0,5.09-.05,7.63-.15,8.81-.34,23.87-.96,41.97-5.78,6.3-1.68,17.17-4.63,30.18-11.37,9.97-5.16,17.24-10.66,21.95-14.21,8.12-6.12,13.39-11.03,15.41-12.97,2.83-2.73,4.84-4.88,6.26-6.4,13.2-14.15,21.49-27.19,25.13-31.85.96-1.23,1.53-2.02,2.37-3.27,1.03-1.53,2.14-3.33,2.86-4.31.1-.14.32-.43.58-.85.14-.23.28-.46.54-.92.21-.36.24-.42.36-.63.15-.26.37-.63.66-1.09,1.05-1.45,1.29-3.17.57-4.48Z"/><path class="cls-3" d="M489.42,219.13c0-1.55,0-3.09-.03-4.63-.01-1.73-.02-3.45-.04-5.18-.02-2.59-.04-5.17-.05-7.77,0-.7-.01-1.4-.02-2.1-.02-2.71-.04-5.42-.06-8.13-.01-1.31-.02-2.62-.03-3.93-.03-4.05-.07-8.11-.11-12.16-.08-9.08-.17-18.16-.27-27.24-.09-9.15-.19-18.3-.33-27.44-.06-3.73-.11-7.47-.17-11.2-.01-.95-.03-1.89-.04-2.84-.06-4.4-.13-8.81-.2-13.21-.05-2.85-.1-5.7-.16-8.56-.1-5.96-.21-11.91-.33-17.87-.01-.65-.02-1.3-.03-1.96-.04-2.9-.09-5.8-.13-8.69-.03-2.3-.06-4.61-.09-6.91-.02-1.18-.03-2.36-.04-3.54-.07-5.79-.13-11.58-.2-17.36,0,0,0,0,0-.01-.02-1.57-.04-3.15-.06-4.72.02-2.1.05-4.21-.09-6.29,0-.14,0-.28,0-.42,0-.26,0-.52-.02-.78-.02-.58-.13-1.14-.32-1.66-.03-.16-.05-.32-.08-.48,0,0,0-.01,0-.02-.25-.93-.67-1.92-1.21-2.84-1.15-2.07-2.62-3.42-4.3-4.21-.04-.03-.08-.05-.13-.08-1.52-.88-3.59-1.05-5.31-.87-1.42.15-2.76.45-4.13.83-.95.26-1.89.6-2.81.97-3.17,1.22-6.31,2.91-9.02,4.48-.57.33-1.14.66-1.71,1-4.04,2.38-7.9,5.05-11.72,7.76-.05.03-.09.07-.14.1-7.16,5-14.11,10.29-20.92,15.76-5.77,4.59-11.44,9.31-17.03,14.12-7.18,5.26-14.34,10.56-21.47,15.89-.02.02-.05.04-.07.05-.19.14-.38.28-.57.43-3.33,2.49-6.66,4.99-9.98,7.5-.35.27-.71.54-1.06.8-2.66,2.01-5.32,4.02-7.98,6.04-.53.41-1.06.81-1.6,1.22-.05.04-.11.08-.16.12,0,0,0,0,0,0-.12.09-.25.18-.37.28,0,0,0,0,0,0,0,0,0,0,0,0-.02.01-.04.03-.05.04-.2.15-.4.3-.6.45-1.12.86-2.24,1.71-3.37,2.57-.5.18-.94.53-1.35.86-1.35,1.21-2.74,2.38-4.11,3.55-9.98-2.62-20.1-4.67-30.51-4.57-.98-.04-1.96-.06-2.94-.07-.5-.04-.99-.08-1.49-.11-3.45-.24-6.91-.38-10.36-.47-3.38-.09-6.77-.08-10.15-.03-3.41.06-6.83.18-10.23.42-2.48.18-4.96.39-7.43.68-7.52.54-14.91,2.06-22.2,3.95-.38-.26-.76-.52-1.14-.78,0,0,0,0-.01,0-.12-.08-.24-.16-.36-.25-.4-.28-.91-.62-1.42-.97-.16-.11-.71-.48-1.26-.86-.14-.09-.55-.37-.96-.66l-.4-.27s-.42-.29-.83-.56c-.04-.02-.12-.08-.2-.14l-.06-.04s-.06-.04-.09-.06c-.32-.26-.69-.47-1.03-.71-1.12-.76-2.3-1.57-3.53-2.4-6.29-4.72-12.61-9.41-18.94-14.07-.04-.03-.08-.06-.12-.09-.56-.41-1.11-.82-1.67-1.23-6.79-4.99-13.59-9.96-20.43-14.89-5.69-4.82-11.46-9.55-17.33-14.15-6.77-5.35-13.68-10.53-20.79-15.42-.06-.05-.13-.09-.19-.14-3.84-2.68-7.72-5.32-11.78-7.68-2.14-1.25-4.33-2.46-6.57-3.53-.06-.03-.11-.05-.17-.08-3.85-1.94-8.13-3.66-11.97-3.59-1.48-.02-3.08.23-4.32.96-.66.39-1.27.84-1.8,1.35-.98.7-1.82,1.68-2.47,2.74-.49.78-.87,1.62-1.15,2.49-.04.12-.08.25-.11.37-.02.06-.04.13-.05.19,0,0,0,.01,0,.02,0,0,0,0,0,0-.08.3-.15.6-.2.9-.1.4-.17.82-.19,1.25,0,.26,0,.52-.01.78,0,.06,0,.12,0,.18-.01,1.48-.02,2.96-.03,4.44,0,.22,0,.45,0,.67-.02,2.05-.03,4.1-.04,6.15-.02,4.31-.03,8.63-.05,12.94-.03,8.51-.09,17.01-.16,25.52-.07,8.81-.22,17.62-.29,26.43-.08,9.08-.14,18.17-.21,27.25-.15,18.23-.14,36.46-.2,54.68-.03,8.78-.03,17.55-.02,26.32,0,4.32,0,8.63,0,12.94,0,2.11,0,4.21,0,6.32,0,.82,0,1.63,0,2.45,0,.23.02.45.04.67,0,.72.03,1.44.07,2.16.11,2.04.22,4.09.42,6.12.52,5.27,1.45,10.51,2.45,15.71.53,2.76,1.18,5.51,2.07,8.17.43,1.28.91,2.54,1.47,3.77,3.25,10.42,7.77,20.48,13.41,29.89,1.22,2.04,2.5,4.04,3.82,6,0,0,0,0,0,0,8.26,12.39,18.44,23.08,29.97,32.13,2.75,2.17,5.57,4.25,8.46,6.23h0s.03.02.04.03c2.44,1.67,4.94,3.26,7.48,4.78,3.04,1.83,6.13,3.56,9.27,5.19,3,1.57,6.04,3.06,9.14,4.43.61.27,1.22.53,1.83.79.09.04.18.08.27.12.22.1.45.19.67.28,3.6,1.54,7.26,2.97,10.96,4.29.01,0,.02,0,.03.01.06.02.12.04.18.06,1.49.53,2.99,1.05,4.5,1.54,4.15,1.37,8.35,2.57,12.58,3.63.34.09.68.17,1.03.26.08.02.17.04.25.06,12.41,3.09,25.1,5,37.72,5.75,1.18.08,2.35.14,3.53.2.11,0,.21.01.32.02,1.18.06,2.37.1,3.55.14.05,0,.1,0,.15,0,8.11.25,16.24.04,24.32-.62.17-.01.34-.03.52-.04.66-.06,1.33-.11,1.99-.18.3-.03.6-.06.91-.09.13-.01.25-.02.38-.04.88-.02,1.75-.05,2.63-.08,2.82-.09,5.64-.23,8.45-.44,1.59-.11,3.17-.25,4.75-.4.09,0,.18-.02.27-.03,1.16-.11,2.33-.23,3.49-.35,1.9-.12,3.81-.37,5.73-.7.24-.03.48-.07.72-.11,7.3-1.02,14.55-2.41,21.69-4.19,5-1.23,9.96-2.65,14.85-4.3,9.46-3.02,18.65-6.92,27.41-11.6.02-.01.04-.02.06-.03.59-.31,1.17-.63,1.75-.95,2.95-1.62,5.85-3.33,8.68-5.13,9.58-5.93,18.49-13.02,26.46-20.9,6.56-6.48,12.41-13.56,17.51-21.16,4.82-7.07,8.98-14.59,12.36-22.5.19-.45.38-.9.57-1.35.01-.03.02-.06.04-.08,1.86-4.44,3.49-9,4.87-13.68,0,0,0,0,0,0,.39-.95.74-1.91,1.06-2.88.68-2.05,1.2-4.15,1.64-6.26,1.23-5.11,2.02-10.33,2.5-15.58.08-.69.15-1.38.21-2.06.18-2.04.28-4.08.38-6.13.04-.72.06-1.44.05-2.16.02-.22.04-.44.04-.67,0-.82,0-1.63,0-2.45,0-.56,0-1.12-.01-1.68Z"/><path class="cls-2" d="M444.23,243.48c-.07-6.64-1.85-13.21-4.47-19.29-2.68-6.19-6.88-11.68-11.74-16.36-4.71-4.53-10.55-8.19-16.69-10.52-3.14-1.19-6.35-2.14-9.66-2.74-3.36-.61-6.68-.82-10.08-.86-8.91.02-17.77,2.54-25.48,6.9-7.57,4.28-13.85,10.34-18.56,17.57-2.93,4.49-5.06,9.53-6.32,14.77-2.37,7.31-2.7,18.73-1.03,25.76.02,1.02.23,2.03.61,2.98.08.27.16.55.24.83,1.03,3.61,2.7,6.91,4.63,10.13,3.23,5.4,7.7,10.26,12.76,14.05,9.26,6.93,20.82,11.03,32.48,11.03,1.87,0,3.75-.11,5.61-.32,6.7-.78,13.39-2.55,19.31-5.81,5.45-3,10.52-6.71,14.65-11.35,4.46-5.02,8.06-10.7,10.41-16.97,1.14-3.06,2.05-6.25,2.56-9.47.55-3.46.77-6.85.74-10.34Z"/><path d="M404.5,239.63c-.41-6.1-1.45-12.36-3.93-17.77-1.94-4.24-5.15-8.05-9.34-8.57-3.05-.38-6.05.94-8.37,3.32-1.96,2.01-3.29,4.55-4.34,7.36-1.82,4.9-2.69,10.21-3.07,15.53-.2,2.89-.09,5.76.07,8.64.12,2.16.27,4.33.6,6.46.39,2.52.89,4.93,1.58,7.34.28.98.6,1.94.98,2.88.56,1.4,1.06,2.85,1.75,4.17,1.4,2.67,3.19,4.81,5.64,6.04,1.17.58,2.36.86,3.54.86,1.56,0,3.11-.48,4.58-1.38.37-.22.72-.49,1.07-.77,2.58-1.09,4.31-4.05,5.49-7.39.46-.72.84-1.51,1.18-2.39.94-2.41,1.5-5,1.91-7.6.85-5.47,1.02-11.18.65-16.72Z"/><path class="cls-2" d="M279.76,244.66c-.07-6.64-1.85-13.21-4.47-19.29-2.68-6.19-6.88-11.68-11.74-16.36-4.71-4.53-10.55-8.19-16.69-10.52-3.14-1.19-6.35-2.14-9.66-2.74-3.36-.61-6.68-.82-10.08-.86-8.91.02-17.77,2.54-25.48,6.9-7.57,4.28-13.85,10.34-18.56,17.57-2.93,4.49-5.06,9.53-6.32,14.77-2.37,7.31-2.7,18.73-1.03,25.76.02,1.02.23,2.03.61,2.98.08.27.16.55.24.83,1.03,3.61,2.7,6.91,4.63,10.13,3.23,5.4,7.7,10.26,12.76,14.05,9.26,6.93,20.82,11.03,32.48,11.03,1.87,0,3.75-.11,5.61-.32,6.7-.78,13.39-2.55,19.31-5.81,5.45-3,10.52-6.71,14.65-11.35,4.46-5.02,8.06-10.7,10.41-16.97,1.14-3.06,2.05-6.25,2.56-9.47.55-3.46.77-6.85.74-10.34Z"/><path d="M240.04,240.81c-.41-6.1-1.45-12.36-3.93-17.77-1.94-4.24-5.15-8.05-9.34-8.57-3.05-.38-6.05.94-8.37,3.32-1.96,2.01-3.29,4.55-4.34,7.36-1.82,4.9-2.69,10.21-3.07,15.53-.2,2.89-.09,5.76.07,8.64.12,2.16.27,4.33.6,6.46.39,2.52.89,4.93,1.58,7.34.28.98.6,1.94.98,2.88.56,1.4,1.06,2.85,1.75,4.17,1.4,2.67,3.19,4.81,5.64,6.04,1.17.58,2.36.86,3.54.86,1.56,0,3.11-.48,4.58-1.38.37-.22.72-.49,1.07-.77,2.58-1.09,4.31-4.05,5.49-7.39.46-.72.84-1.51,1.18-2.39.94-2.41,1.5-5,1.91-7.6.85-5.47,1.02-11.18.65-16.72Z"/></g></g></svg>